<?xml version="1.0" encoding="UTF-8" standalone="no"?>
<!-- Created with Inkscape (http://www.inkscape.org/) -->

<svg
   xmlns:dc="http://purl.org/dc/elements/1.1/"
   xmlns:cc="http://creativecommons.org/ns#"
   xmlns:rdf="http://www.w3.org/1999/02/22-rdf-syntax-ns#"
   xmlns:svg="http://www.w3.org/2000/svg"
   xmlns="http://www.w3.org/2000/svg"
   xmlns:xlink="http://www.w3.org/1999/xlink"
   xmlns:sodipodi="http://sodipodi.sourceforge.net/DTD/sodipodi-0.dtd"
   xmlns:inkscape="http://www.inkscape.org/namespaces/inkscape"
   width="744.09448819"
   height="1052.3622047"
   id="svg2"
   version="1.1"
   inkscape:version="0.48.2 r9819"
   sodipodi:docname="LogoSquarcle copy.svg"
   inkscape:export-filename="/Users/jacob/Dropbox/Programming/Swift/Bloon/LogoSquarcle.png"
   inkscape:export-xdpi="500"
   inkscape:export-ydpi="500">
  <defs
     id="defs4">
    <marker
       inkscape:stockid="Arrow1Send"
       orient="auto"
       refY="0.0"
       refX="0.0"
       id="Arrow1Send"
       style="overflow:visible;">
      <path
         id="path3833"
         d="M 0.0,0.0 L 5.0,-5.0 L -12.5,0.0 L 5.0,5.0 L 0.0,0.0 z "
         style="fill-rule:evenodd;stroke:#000000;stroke-width:1.0pt;marker-start:none;"
         transform="scale(0.2) rotate(180) translate(6,0)" />
    </marker>
    <marker
       inkscape:stockid="Arrow1Sstart"
       orient="auto"
       refY="0.0"
       refX="0.0"
       id="Arrow1Sstart"
       style="overflow:visible">
      <path
         id="path3830"
         d="M 0.0,0.0 L 5.0,-5.0 L -12.5,0.0 L 5.0,5.0 L 0.0,0.0 z "
         style="fill-rule:evenodd;stroke:#000000;stroke-width:1.0pt;marker-start:none"
         transform="scale(0.2) translate(6,0)" />
    </marker>
    <linearGradient
       id="linearGradient7294">
      <stop
         style="stop-color:#ffffff;stop-opacity:1;"
         offset="0"
         id="stop7296" />
      <stop
         style="stop-color:#ffffff;stop-opacity:0;"
         offset="1"
         id="stop7298" />
    </linearGradient>
    <linearGradient
       id="linearGradient5717">
      <stop
         style="stop-color:#ffffff;stop-opacity:1;"
         offset="0"
         id="stop5719" />
      <stop
         style="stop-color:#000000;stop-opacity:1;"
         offset="1"
         id="stop5721" />
    </linearGradient>
    <marker
       inkscape:stockid="Arrow1Mstart"
       orient="auto"
       refY="0.0"
       refX="0.0"
       id="Arrow1Mstart"
       style="overflow:visible">
      <path
         id="path3824"
         d="M 0.0,0.0 L 5.0,-5.0 L -12.5,0.0 L 5.0,5.0 L 0.0,0.0 z "
         style="fill-rule:evenodd;stroke:#000000;stroke-width:1.0pt;marker-start:none"
         transform="scale(0.4) translate(10,0)" />
    </marker>
    <marker
       inkscape:stockid="Arrow1Mend"
       orient="auto"
       refY="0.0"
       refX="0.0"
       id="Arrow1Mend"
       style="overflow:visible;">
      <path
         id="path3827"
         d="M 0.0,0.0 L 5.0,-5.0 L -12.5,0.0 L 5.0,5.0 L 0.0,0.0 z "
         style="fill-rule:evenodd;stroke:#000000;stroke-width:1.0pt;marker-start:none;"
         transform="scale(0.4) rotate(180) translate(10,0)" />
    </marker>
    <marker
       inkscape:stockid="Arrow1Lend"
       orient="auto"
       refY="0.0"
       refX="0.0"
       id="Arrow1Lend"
       style="overflow:visible;">
      <path
         id="path3821"
         d="M 0.0,0.0 L 5.0,-5.0 L -12.5,0.0 L 5.0,5.0 L 0.0,0.0 z "
         style="fill-rule:evenodd;stroke:#000000;stroke-width:1.0pt;marker-start:none;"
         transform="scale(0.8) rotate(180) translate(12.5,0)" />
    </marker>
    <marker
       inkscape:stockid="Arrow1Lstart"
       orient="auto"
       refY="0.0"
       refX="0.0"
       id="Arrow1Lstart"
       style="overflow:visible">
      <path
         id="path3818"
         d="M 0.0,0.0 L 5.0,-5.0 L -12.5,0.0 L 5.0,5.0 L 0.0,0.0 z "
         style="fill-rule:evenodd;stroke:#000000;stroke-width:1.0pt;marker-start:none"
         transform="scale(0.8) translate(12.5,0)" />
    </marker>
    <linearGradient
       id="linearGradient4349">
      <stop
         style="stop-color:#ffffff;stop-opacity:1;"
         offset="0"
         id="stop4351" />
      <stop
         style="stop-color:#004a00;stop-opacity:0.24786325;"
         offset="1"
         id="stop4353" />
    </linearGradient>
    <linearGradient
       id="linearGradient4325">
      <stop
         style="stop-color:#004800;stop-opacity:1;"
         offset="0"
         id="stop4327" />
      <stop
         style="stop-color:#ffffff;stop-opacity:1;"
         offset="1"
         id="stop4329" />
    </linearGradient>
    <linearGradient
       id="linearGradient4295">
      <stop
         style="stop-color:#ffffff;stop-opacity:1;"
         offset="0"
         id="stop4297" />
      <stop
         style="stop-color:#84b284;stop-opacity:0;"
         offset="1"
         id="stop4299" />
    </linearGradient>
    <linearGradient
       id="linearGradient4143">
      <stop
         style="stop-color:#84ac84;stop-opacity:1;"
         offset="0"
         id="stop4145" />
      <stop
         style="stop-color:#004a00;stop-opacity:1;"
         offset="1"
         id="stop4147" />
    </linearGradient>
    <linearGradient
       id="linearGradient3918">
      <stop
         style="stop-color:#000000;stop-opacity:1;"
         offset="0"
         id="stop3920" />
      <stop
         id="stop3926"
         offset="0.68604654"
         style="stop-color:#000000;stop-opacity:0.49803922;" />
      <stop
         style="stop-color:#000000;stop-opacity:0;"
         offset="1"
         id="stop3922" />
    </linearGradient>
    <linearGradient
       inkscape:collect="always"
       id="linearGradient3793">
      <stop
         style="stop-color:#000000;stop-opacity:1;"
         offset="0"
         id="stop3795" />
      <stop
         style="stop-color:#000000;stop-opacity:0;"
         offset="1"
         id="stop3797" />
    </linearGradient>
    <linearGradient
       id="linearGradient3767">
      <stop
         style="stop-color:#008000;stop-opacity:0.23931624;"
         offset="0"
         id="stop3769" />
      <stop
         id="stop3783"
         offset="0.333363"
         style="stop-color:#007c00;stop-opacity:0.58119661;" />
      <stop
         style="stop-color:#007800;stop-opacity:1;"
         offset="1"
         id="stop3771" />
    </linearGradient>
    <linearGradient
       id="linearGradient3755">
      <stop
         id="stop3765"
         offset="0"
         style="stop-color:#36a630;stop-opacity:0.49803922;" />
      <stop
         style="stop-color:#8eff7e;stop-opacity:0;"
         offset="1"
         id="stop3759" />
    </linearGradient>
    <radialGradient
       inkscape:collect="always"
       xlink:href="#linearGradient3767"
       id="radialGradient3773"
       cx="377.91736"
       cy="290.51038"
       fx="377.91736"
       fy="290.51035"
       r="162.57356"
       gradientUnits="userSpaceOnUse"
       gradientTransform="matrix(1.279482,-0.00618,0.00562533,1.1650455,-128.5525,-28.49569)" />
    <radialGradient
       inkscape:collect="always"
       xlink:href="#linearGradient3793"
       id="radialGradient3801"
       cx="321.83353"
       cy="356.35544"
       fx="321.83353"
       fy="356.35544"
       r="162.57356"
       gradientUnits="userSpaceOnUse" />
    <radialGradient
       inkscape:collect="always"
       xlink:href="#linearGradient3767"
       id="radialGradient3910"
       gradientUnits="userSpaceOnUse"
       gradientTransform="matrix(1.279482,-0.00618,0.00562533,1.1650455,-128.5525,-28.49569)"
       cx="377.91736"
       cy="290.51038"
       fx="377.91736"
       fy="290.51035"
       r="162.57356" />
    <radialGradient
       inkscape:collect="always"
       xlink:href="#linearGradient3793"
       id="radialGradient3912"
       gradientUnits="userSpaceOnUse"
       cx="321.83353"
       cy="356.35544"
       fx="321.83353"
       fy="356.35544"
       r="162.57356" />
    <radialGradient
       inkscape:collect="always"
       xlink:href="#linearGradient3918"
       id="radialGradient3924"
       cx="180.02455"
       cy="442.82568"
       fx="180.02455"
       fy="442.82568"
       r="76.987991"
       gradientTransform="matrix(1,0,0,1.4962406,0,-219.74808)"
       gradientUnits="userSpaceOnUse" />
    <radialGradient
       inkscape:collect="always"
       xlink:href="#linearGradient4143"
       id="radialGradient4165"
       cx="347.263"
       cy="650.76343"
       fx="347.263"
       fy="650.76343"
       r="121.19014"
       gradientTransform="matrix(1.8767404,-0.02688496,0.04210908,2.8434835,-330.88232,-1186.8908)"
       gradientUnits="userSpaceOnUse" />
    <radialGradient
       inkscape:collect="always"
       xlink:href="#linearGradient4143"
       id="radialGradient4262"
       gradientUnits="userSpaceOnUse"
       gradientTransform="matrix(1.6365772,-0.7715904,0.74423108,1.5966287,-723.59788,-157.00684)"
       cx="348.41522"
       cy="672.24249"
       fx="348.41522"
       fy="672.24249"
       r="126.79789" />
    <radialGradient
       inkscape:collect="always"
       xlink:href="#linearGradient4143"
       id="radialGradient4289"
       gradientUnits="userSpaceOnUse"
       gradientTransform="matrix(1.6365772,-0.7715904,0.74423108,1.5966287,-723.59788,-157.00684)"
       cx="348.41522"
       cy="672.24249"
       fx="348.41522"
       fy="672.24249"
       r="126.79789" />
    <linearGradient
       inkscape:collect="always"
       xlink:href="#linearGradient4295"
       id="linearGradient4301"
       x1="538.03339"
       y1="465.35315"
       x2="325.43893"
       y2="541.69501"
       gradientUnits="userSpaceOnUse" />
    <linearGradient
       inkscape:collect="always"
       xlink:href="#linearGradient4325"
       id="linearGradient4331"
       x1="411.33612"
       y1="559.00055"
       x2="447.40546"
       y2="444.91016"
       gradientUnits="userSpaceOnUse" />
    <radialGradient
       inkscape:collect="always"
       xlink:href="#linearGradient4349"
       id="radialGradient4355"
       cx="452.5246"
       cy="474.36432"
       fx="452.5246"
       fy="474.36432"
       r="38.383635"
       gradientTransform="matrix(2.2248139,0.00664384,-0.00628503,2.1046581,-551.27699,-528.56131)"
       gradientUnits="userSpaceOnUse" />
    <filter
       inkscape:collect="always"
       id="filter4385"
       x="-0.21535176"
       width="1.4307035"
       y="-0.13075141"
       height="1.2615028">
      <feGaussianBlur
         inkscape:collect="always"
         stdDeviation="6.4428377"
         id="feGaussianBlur4387" />
    </filter>
    <radialGradient
       inkscape:collect="always"
       xlink:href="#linearGradient4143"
       id="radialGradient3037"
       gradientUnits="userSpaceOnUse"
       gradientTransform="matrix(1.8767404,-0.02688496,0.04210908,2.8434835,-330.88232,-1186.8908)"
       cx="347.263"
       cy="650.76343"
       fx="347.263"
       fy="650.76343"
       r="121.19014" />
    <use
       style="fill:currentColor; stroke:none"
       id="gpPt12"
       xlink:href="#gpPt11" />
    <use
       transform="rotate(45)"
       id="gpPt11"
       xlink:href="#gpPt3" />
    <use
       style="fill:currentColor; stroke:none"
       id="gpPt10"
       xlink:href="#gpPt9" />
    <use
       transform="rotate(180)"
       id="gpPt9"
       xlink:href="#gpPt7" />
    <use
       style="fill:currentColor; stroke:none"
       id="gpPt8"
       xlink:href="#gpPt7" />
    <path
       d="M0,-1.33 L-1.33,0.67 L1.33,0.67 z"
       style="stroke-width:0.133"
       id="gpPt7" />
    <use
       style="fill:currentColor; stroke:none"
       id="gpPt6"
       xlink:href="#gpPt5" />
    <circle
       r="1"
       cy="0"
       cx="0"
       style="stroke-width:0.133"
       id="gpPt5" />
    <use
       style="fill:currentColor; stroke:none"
       id="gpPt4"
       xlink:href="#gpPt3" />
    <rect
       height="2"
       width="2"
       y="-1"
       x="-1"
       style="stroke-width:0.133"
       id="gpPt3" />
    <path
       d="M-1,0 L1,0 M0,-1 L0,1 M-1,-1 L1,1 M-1,1 L1,-1"
       style="stroke-width:0.133"
       id="gpPt2" />
    <path
       d="M-1,-1 L1,1 M1,-1 L-1,1"
       style="stroke-width:0.133"
       id="gpPt1" />
    <path
       d="M-1,0 h2 M0,-1 v2"
       style="stroke-width:0.133"
       id="gpPt0" />
    <circle
       r="1"
       id="gpDot" />
    <linearGradient
       inkscape:collect="always"
       xlink:href="#linearGradient7294"
       id="linearGradient7300"
       x1="273.61276"
       y1="775.67289"
       x2="443.31168"
       y2="775.67289"
       gradientUnits="userSpaceOnUse" />
    <linearGradient
       inkscape:collect="always"
       xlink:href="#linearGradient7294"
       id="linearGradient7302"
       gradientUnits="userSpaceOnUse"
       x1="282.35895"
       y1="765.49408"
       x2="352.36148"
       y2="765.91058"
       gradientTransform="matrix(1.0558602,0,0,1,-15.773719,-0.5695997)" />
  </defs>
  <sodipodi:namedview
     id="base"
     pagecolor="#ffffff"
     bordercolor="#666666"
     borderopacity="1.0"
     inkscape:pageopacity="0.0"
     inkscape:pageshadow="2"
     inkscape:zoom="3.7409156"
     inkscape:cx="395.88156"
     inkscape:cy="528.19473"
     inkscape:document-units="px"
     inkscape:current-layer="g7291"
     showgrid="false"
     inkscape:window-width="1920"
     inkscape:window-height="1127"
     inkscape:window-x="0"
     inkscape:window-y="0"
     inkscape:window-maximized="0" />
  <metadata
     id="metadata7">
    <rdf:RDF>
      <cc:Work
         rdf:about="">
        <dc:format>image/svg+xml</dc:format>
        <dc:type
           rdf:resource="http://purl.org/dc/dcmitype/StillImage" />
        <dc:title />
      </cc:Work>
    </rdf:RDF>
  </metadata>
  <g
     inkscape:label="Layer 1"
     inkscape:groupmode="layer"
     id="layer1">
    <g
       id="g4173"
       transform="matrix(0.99340492,0,0,0.99537067,159.40351,-246.28817)"
       style="stroke:#000000;stroke-opacity:1">
      <path
         style="fill:url(#radialGradient3037);fill-opacity:1;stroke:#000000;stroke-width:2.01128864;stroke-miterlimit:4;stroke-opacity:1;stroke-dasharray:none"
         d="m 122.15825,870.79515 c -33.00219,-32.45885 -32.878316,-161.49454 0,-193.83155 32.87834,-32.33701 164.33754,-31.60603 196.47266,0 32.1351,31.60602 32.87832,161.49454 0,193.83155 -32.87834,32.33701 -163.47046,32.45886 -196.47266,0 z"
         id="path4169"
         inkscape:connector-curvature="0"
         sodipodi:nodetypes="zzzzz" />
    </g>
    <path
       sodipodi:nodetypes="ccccc"
       inkscape:connector-curvature="0"
       id="path4341"
       d="m 405.90568,432.74747 c 14.05641,8.87953 51.532,92.64939 45.17165,103.16482 0,0 18.18654,1.78985 30.34117,-13.29142 5.21446,-22.65237 -20.06188,-89.88362 -44.21309,-104.126 -13.42549,-0.0466 -24.22017,6.31946 -31.29973,14.2526 z"
       style="fill:url(#radialGradient4355);fill-opacity:1;stroke:none;filter:url(#filter4385)"
       transform="matrix(1.066131,0.05562776,-0.05632932,1.0528526,-5.9669315,-45.872808)" />
    <path
       style="fill:none;stroke:#000000;stroke-width:4;stroke-linecap:butt;stroke-linejoin:miter;stroke-miterlimit:4;stroke-opacity:1;stroke-dasharray:none;marker-start:url(#Arrow1Sstart);marker-end:url(#Arrow1Send)"
       d="m 329.74728,430.83424 c 0,0 -2.27134,62.52454 -2.27134,93.63562 0,31.11108 2.27134,93.03086 2.27134,93.03086"
       id="path4629"
       inkscape:connector-curvature="0"
       sodipodi:nodetypes="czc" />
    <path
       sodipodi:nodetypes="czc"
       inkscape:connector-curvature="0"
       id="path5377"
       d="m 471.51703,570.14308 c 0,0 -58.23888,2.23905 -89.35917,2.27133 -31.12029,0.0323 -97.3073,-2.27133 -97.3073,-2.27133"
       style="fill:none;stroke:#000000;stroke-width:4;stroke-linecap:butt;stroke-linejoin:miter;stroke-miterlimit:4;stroke-opacity:1;stroke-dasharray:none;marker-start:url(#Arrow1Sstart);marker-end:url(#Arrow1Send)" />
    <g
       id="g7291"
       transform="matrix(1.7367915,0,0,1.1817817,-162.91546,-391.33434)"
       style="stroke:url(#linearGradient7300);stroke-width:3.23460579;stroke-linecap:round;stroke-miterlimit:4;stroke-opacity:1;stroke-dasharray:none">
      <path
         sodipodi:nodetypes="czzzzzzzzzzzzzzzzzzzzzzczzzzzc"
         inkscape:connector-curvature="0"
         id="path7289"
         d="m 273.95885,813.32744 c 0.17143,-3.81707 2.57867,-44.93673 2.75393,-47.97423 0.17527,-3.0375 3.19376,-50.63508 6.36095,-50.40888 3.16719,0.2262 5.50336,47.41434 5.57063,50.15004 0.0673,2.73569 2.76559,45.83866 3.02102,48.82721 0.25542,2.98855 2.47488,41.55628 5.10076,41.64864 2.62588,0.0924 5.48241,-38.27258 5.6331,-41.64864 0.15069,-3.37606 2.0918,-32.78588 4.95752,-32.90841 2.86572,-0.12253 4.69851,31.13012 5.14321,33.27635 0.44469,2.14623 1.8226,20.49303 4.27704,20.49303 2.45445,0 4.41799,-19.14128 4.85246,-20.677 0.43448,-1.53572 1.80317,-15.56046 4.85613,-15.63657 3.05297,-0.0761 4.6044,13.92066 5.43885,15.63657 0.83446,1.71591 1.59867,10.81356 4.27339,10.96406 2.67472,0.1505 4.8073,-13.17808 5.6331,-14.53275 0.82581,-1.35467 1.78582,-4.68851 4.07914,-4.78318 2.29331,-0.0947 3.93908,6.68921 4.95263,8.35187 1.01355,1.66266 2.52141,5.76312 4.76205,5.83222 2.24065,0.0691 5.83594,-9.52466 9.12707,-9.69556 3.29112,-0.1709 4.72256,2.81702 5.82733,3.86334 1.10476,1.04632 2.20624,3.28644 4.27461,3.40167 2.06836,0.11523 3.62565,-2.41922 5.24338,-3.58564 1.61775,-1.16642 2.41224,-2.84977 4.76206,-2.84977 2.34981,0 6.36993,5.51446 9.02933,5.60929 2.84298,0.0427 6.68051,-5.59713 10.29498,-5.51904 3.61446,0.0781 5.65551,5.0597 8.93892,5.0597 3.28341,0 6.49058,-4.59695 10.09707,-4.5078 3.60648,0.0892 5.37176,4.12831 8.93525,4.23127 3.5635,0.10296 6.90956,-4.29084 10.48922,-4.23127 3.57966,0.0596 9.12951,4.0473 9.12951,4.0473"
         style="fill:none;stroke:url(#linearGradient7302);stroke-width:4.18802023000000023;stroke-linecap:round;stroke-linejoin:round;stroke-miterlimit:4;stroke-opacity:1;stroke-dasharray:none" />
    </g>
  </g>
</svg>
